<?xml version="1.0" encoding="UTF-8"?>
<svg id="Capa_2" data-name="Capa 2" xmlns="http://www.w3.org/2000/svg" viewBox="0 0 909.6 468.2" width="120" height="80">
  <defs>
    <style>
      .cls-1 {
        fill: #f0590e;
      }

      .cls-2 {
        fill: #001821;
      }
    </style>
  </defs>
  <g>
    <path class="cls-2" d="M42.26,182.65L0,56.72h25.81l37.86,114.02,37.86-114.02h25.95l-42.26,125.93c-3.12,9.22-8.65,18.44-21.56,18.44s-18.44-9.22-21.41-18.44Z"/>
    <path class="cls-2" d="M138.67,127.35c0-41.98,29.36-74.88,73.32-74.88s71.19,33.33,71.19,72.18c0,4.96,0,8.22-.28,10.78h-118.13c3.4,27.51,24.25,43.68,50.48,43.68,23.97,0,35.17-10.49,45.66-21.56l18.01,16.02c-13.9,16.17-34.03,29.21-64.09,29.21-43.82,0-76.15-29.5-76.15-75.44ZM166.04,112.88h88.49c-3.55-20.14-18.3-36.73-42.55-36.73s-40.98,15.17-45.94,36.73Z"/>
    <path class="cls-2" d="M310.66,127.06c0-45.95,26.24-70.34,72.47-70.34v25.53c-35.59,0-46.94,16.73-46.94,50.34v65.94h-25.53v-71.47Z"/>
    <path class="cls-2" d="M406.23,143.94V17.02h25.53v39.71h39.85v22.55h-39.85v59.28c0,23.4,10.35,37.44,33.61,37.44h3.69v22.55h-3.69c-35.31,0-59.13-19.71-59.13-54.6Z"/>
    <path class="cls-2" d="M493.86,20c0-9.78,7.37-17.16,17.16-17.16s17.16,7.37,17.16,17.16-7.37,17.16-17.16,17.16-17.16-7.37-17.16-17.16ZM498.26,56.72h25.53v141.81h-25.53V56.72Z"/>
    <path class="cls-2" d="M554.54,127.63c0-41.41,28.65-75.16,78.28-75.16,21.13,0,35.88,7.09,43.96,13.33v28.93c-10.07-9.36-24.53-17.73-42.97-17.73-31.34,0-52.75,20.56-52.75,50.63s21.41,50.63,52.75,50.63c18.44,0,32.9-8.37,42.97-17.73v28.93c-8.09,6.24-22.83,13.33-43.96,13.33-49.63,0-78.28-33.75-78.28-75.16Z"/>
    <path class="cls-2" d="M846.94,127.49v71.05h-25.53v-21.13c-10.07,14.46-29.07,25.38-52.19,25.38-43.4,0-73.03-34.74-73.03-75.3s30.63-75.02,75.3-75.02c47.79,0,75.44,36.3,75.44,75.02ZM722.71,127.49c0,27.79,19.99,50.77,48.78,50.77,30.35,0,48.78-24.39,48.78-50.77s-18.44-50.48-48.78-50.48-48.78,23.54-48.78,50.48Z"/>
    <path class="cls-2" d="M884.07,0h25.53v198.53h-25.53V0Z"/>
  </g>
  <g>
    <path class="cls-1" d="M21.29,376.07h31.19c13.32,0,18.43-5.22,18.43-12.1,0-5.33-2.66-8.88-15.09-15.98l-10.1-5.77c-14.1-7.77-24.31-17.09-24.31-31.41,0-17.31,12.99-28.08,35.07-28.08h29.41v17.65h-30.19c-8.43,0-13.54,3.77-13.54,9.77s4.33,9.66,13.87,15.1l12.1,6.99c16.98,9.66,23.53,17.98,23.53,30.97,0,21.64-17.87,30.52-37.18,30.52H21.29v-17.65Z"/>
    <path class="cls-1" d="M233.96,338.11c0,31.74-23.2,58.94-57.16,58.94-18.09,0-32.97-8.55-40.85-19.53v60.6h-19.98v-100c0-30.3,21.64-58.72,58.94-58.72,35.08,0,59.05,25.97,59.05,58.72ZM136.74,338.11c0,20.64,14.54,39.74,38.18,39.74s38.18-17.98,38.18-39.74-15.1-39.51-38.18-39.51-38.18,19.09-38.18,39.51Z"/>
    <path class="cls-1" d="M371.95,338.11v55.61h-19.98v-16.54c-7.88,11.32-22.75,19.87-40.85,19.87-33.96,0-57.16-27.19-57.16-58.94s23.98-58.72,58.94-58.72c37.4,0,59.05,28.41,59.05,58.72ZM274.72,338.11c0,21.75,15.65,39.74,38.18,39.74,23.75,0,38.18-19.09,38.18-39.74s-14.43-39.51-38.18-39.51-38.18,18.42-38.18,39.51Z"/>
    <path class="cls-1" d="M400.61,382.4c0-8.21,6.33-14.65,14.65-14.65s14.65,6.44,14.65,14.65-6.66,14.65-14.65,14.65-14.65-6.44-14.65-14.65Z"/>
  </g>
</svg>